# xmcd
#
# Track frame offsets: 
#        150
#        15445
#        41393
#        73378
#        87073
#        104008
#        127768
#        144235
#        178515
#
# Disc length: 2639 seconds
#
# Revision: 4
# Processed by: cddbd v1.5.2PL0 Copyright (c) Steve Scherf et al.
# Submitted via: ExactAudioCopy v0.99pb3
#
DISCID=6d0a4d09
DTITLE=Jan Akkerman - Blues Hearts
DYEAR=1994
DGENRE=Blues
TTITLE0=Wake Up!
TTITLE1=Blues Route '94
TTITLE2=Milestones
TTITLE3=Red Pool House Blues
TTITLE4=No Gossip
TTITLE5=Virgin Mary
TTITLE6=Traffic Jam
TTITLE7=Mercy, mercy, mercy
TTITLE8=Soft Focus
EXTD=
EXTT0=
EXTT1=
EXTT2=
EXTT3=
EXTT4=
EXTT5=
EXTT6=
EXTT7=
EXTT8=
PLAYORDER=
